HIERARCHY
ROOT Hips
{
	OFFSET 0.000000 0.000000 0.000000 
	CHANNELS 6 Xposition Yposition Zposition Zrotation Yrotation Xrotation
	JOINT LeftUpLeg
	{
		OFFSET 1.363060 -1.794630 0.839290 
		CHANNELS 3 Zrotation Yrotation Xrotation
		JOINT LeftLeg
		{
			OFFSET 2.448110 -6.726130 0.000000 
			CHANNELS 3 Zrotation Yrotation Xrotation
			JOINT LeftFoot
			{
				OFFSET 2.562200 -7.039590 0.000000 
				CHANNELS 3 Zrotation Yrotation Xrotation
				JOINT LeftToeBase
				{
					OFFSET 0.157640 -0.433110 2.322550 
					CHANNELS 3 Zrotation Yrotation Xrotation
					End Site
					{
						OFFSET 0.000000 0.000000 0.000000 
					}
				}
			}
		}
	}
	JOINT RightUpLeg
	{
		OFFSET -1.305520 -1.794630 0.839290 
		CHANNELS 3 Zrotation Yrotation Xrotation
		JOINT RightLeg
		{
			OFFSET -2.542530 -6.985550 0.000000 
			CHANNELS 3 Zrotation Yrotation Xrotation
			JOINT RightFoot
			{
				OFFSET -2.568260 -7.056230 0.000000 
				CHANNELS 3 Zrotation Yrotation Xrotation
				JOINT RightToeBase
				{
					OFFSET -0.164730 -0.452590 2.363150 
					CHANNELS 3 Zrotation Yrotation Xrotation
					End Site
					{
						OFFSET 0.000000 0.000000 0.000000 
					}
				}
			}
		}
	}
	JOINT Spine
	{
		OFFSET 0.028270 2.035590 -0.193380 
		CHANNELS 3 Zrotation Yrotation Xrotation
		JOINT Spine1
		{
			OFFSET 0.056720 2.048850 -0.042750 
			CHANNELS 3 Zrotation Yrotation Xrotation
			JOINT Neck1
			{
				OFFSET -0.054170 1.746240 0.172020 
				CHANNELS 3 Zrotation Yrotation Xrotation
				JOINT Head
				{
					OFFSET 0.104070 1.761360 -0.123970 
					CHANNELS 3 Zrotation Yrotation Xrotation
					End Site
					{
						OFFSET 0.000000 0.000000 0.000000 
					}
				}
			}
			JOINT LeftArm
			{
				OFFSET 3.362410 1.200890 -0.311210 
				CHANNELS 3 Zrotation Yrotation Xrotation
				JOINT LeftForeArm
				{
					OFFSET 4.983000 -0.000000 -0.000000 
					CHANNELS 3 Zrotation Yrotation Xrotation
					JOINT LeftHand
					{
						OFFSET 3.483560 -0.000000 -0.000000 
						CHANNELS 3 Zrotation Yrotation Xrotation
						JOINT LeftHandIndex1
						{
							OFFSET 0.715260 -0.000000 -0.000000 
							CHANNELS 3 Zrotation Yrotation Xrotation
							End Site
							{
								OFFSET 0.000000 0.000000 0.000000 
							}
						}
					}
				}
			}
			JOINT RightArm
			{
				OFFSET -3.136600 1.374050 -0.404650 
				CHANNELS 3 Zrotation Yrotation Xrotation
				JOINT RightForeArm
				{
					OFFSET -5.241900 -0.000000 -0.000000 
					CHANNELS 3 Zrotation Yrotation Xrotation
					JOINT RightHand
					{
						OFFSET -3.444170 -0.000000 -0.000000 
						CHANNELS 3 Zrotation Yrotation Xrotation
						JOINT RightHandIndex1
						{
							OFFSET -0.622530 -0.000000 -0.000000 
							CHANNELS 3 Zrotation Yrotation Xrotation
							End Site
							{
								OFFSET 0.000000 0.000000 0.000000 
							}
						}
					}
				}
			}
		}
	}
}
MOTION
Frames: 16
Frame Time: 0.041667
0.865042 18.414006 9.091471 -11.240016 0.004814 6.562903 -17.048082 -39.914783 18.623274 -3.738902 -2.422711 -2.009825 -13.835595 41.245102 -22.746696 0.065200 1.647700 4.533100 24.718952 25.611523 3.352871 3.427397 -1.000100 5.011446 7.020298 -21.779612 -1.765434 -0.002600 -0.326400 0.896800 32.946809 -1.999051 13.166944 -11.137532 -2.147459 -12.939384 9.904281 -10.020706 39.535418 1.927300 -3.223200 11.048200 -88.959163 -28.276499 88.224667 145.564378 -41.149768 -107.419313 -1.240407 -0.346066 -19.433942 -7.125000 0.000000 0.000000 74.715666 35.910661 89.854315 -149.063780 35.933558 -109.113857 -1.891493 -1.206313 -4.232925 7.125000 0.000000 0.000000 
0.864409 18.412215 9.100638 -11.193317 -0.095524 6.575935 -17.219640 -39.991842 18.839833 -3.745471 -2.447271 -2.077625 -13.910745 41.427332 -22.887244 0.058200 1.556000 4.280200 24.683258 25.593229 3.372897 3.427743 -0.986953 4.989514 6.996445 -21.709593 -1.710498 -0.003100 -0.358100 0.983800 32.756392 -1.947756 13.114415 -11.111545 -2.114995 -12.806100 9.652161 -9.994069 40.040306 1.830100 -3.205100 11.156500 -88.992066 -27.896205 88.333502 145.685314 -41.050788 -107.513218 -1.234941 -0.388024 -18.907439 -7.125000 0.000000 0.000000 74.165158 37.102229 90.578766 -149.183853 35.606389 -109.198035 -1.899671 -1.256689 -4.422664 7.125000 0.000000 0.000000 
0.864725 18.410424 9.109488 -10.943463 -0.311562 6.418415 -17.340692 -40.104503 19.074625 -3.751877 -2.465540 -2.159146 -13.948508 41.568268 -23.177510 0.061400 1.598300 4.396700 24.725844 25.569417 3.527627 3.426281 -0.942235 4.983779 6.983861 -21.621471 -1.636818 -0.003300 -0.371600 1.021100 30.080026 -1.455854 14.130884 -11.073622 -1.736114 -12.883440 10.062367 -10.900860 41.155470 1.688800 -3.456700 11.376400 -88.662601 -27.805011 89.745446 145.898745 -40.907746 -107.671644 -1.224903 -0.450548 -18.646585 -7.125000 0.000000 0.000000 73.583610 37.630689 89.800347 -149.361652 35.387214 -109.305042 -1.931044 -1.281890 -4.401128 7.125000 0.000000 0.000000 
0.865674 18.408738 9.116337 -11.292892 -0.218267 6.652512 -17.357145 -40.241772 19.220595 -3.760524 -2.487834 -2.194952 -13.973751 41.657015 -23.429780 0.068000 1.682500 4.629000 24.825171 25.584190 3.435364 3.427360 -0.973543 4.961471 6.957772 -21.622091 -1.646596 -0.002100 -0.296300 0.814000 32.679596 -1.595034 12.579638 -11.240824 -2.014574 -12.419873 8.591907 -9.935730 40.639150 1.450000 -3.259200 11.206600 -89.128540 -27.255370 89.152495 146.247304 -40.550089 -107.890902 -1.210170 -0.501444 -18.425891 -7.125000 0.000000 0.000000 73.776661 37.372259 91.111820 -149.624280 35.053065 -109.455440 -1.915640 -1.323828 -4.852305 7.125000 0.000000 0.000000 
0.865990 18.407263 9.122027 -11.363512 -0.248374 6.744090 -17.263319 -40.250853 19.185317 -3.759623 -2.475478 -2.194899 -13.988780 41.700081 -23.484847 0.069500 1.701400 4.681200 24.911729 25.578895 3.413410 3.425534 -0.981432 4.972741 6.935917 -21.577311 -1.635352 -0.001300 -0.235000 0.645600 32.646600 -1.370722 12.059354 -11.364345 -1.987095 -12.241472 9.122713 -10.203888 41.422153 1.620600 -3.301100 11.469600 -88.995357 -26.933682 89.725001 146.496888 -40.313470 -108.046999 -1.201571 -0.520898 -18.127712 -7.125000 0.000000 0.000000 74.206312 36.485963 91.121700 -149.778887 35.051305 -109.532455 -1.906257 -1.330190 -4.909019 7.125000 0.000000 0.000000 
0.865463 18.405577 9.127927 -11.408430 -0.294730 6.810125 -17.203148 -40.255659 19.162756 -3.761241 -2.468808 -2.186471 -13.953156 41.656614 -23.613263 0.077900 1.799900 4.953000 24.956057 25.626260 3.414182 3.426548 -0.978261 4.961379 6.919848 -21.537810 -1.660614 -0.002600 -0.330900 0.909200 32.721053 -1.271899 11.781531 -11.434489 -1.979266 -12.077553 9.614566 -10.409142 42.042290 1.785500 -3.317800 11.702000 -88.876005 -26.824811 89.589339 146.535497 -40.274454 -108.052900 -1.218984 -0.469916 -18.761881 -7.125000 0.000000 0.000000 73.980186 36.600142 91.184086 -149.873842 34.912537 -109.582116 -1.888245 -1.364807 -4.650705 7.125000 0.000000 0.000000 
0.864409 18.403575 9.134671 -11.363076 -0.380636 6.812151 -17.314983 -40.348195 19.318380 -3.770751 -2.478389 -2.201042 -13.890512 41.613834 -23.986496 0.094100 1.978600 5.446400 24.962896 25.699170 3.493155 3.428834 -0.964077 4.945581 6.911075 -21.498362 -1.720315 -0.004400 -0.429800 1.181100 32.408980 -1.174520 11.799644 -11.445770 -1.921077 -11.978046 10.050655 -10.674573 42.728556 1.902700 -3.353400 11.943200 -88.612824 -26.832948 89.672138 146.470225 -40.328090 -108.001400 -1.232043 -0.419351 -18.912079 -7.125000 0.000000 0.000000 73.684621 36.708549 91.091359 -149.977796 34.768912 -109.635064 -1.891421 -1.384310 -4.381118 7.125000 0.000000 0.000000 
0.863566 18.402522 9.141414 -11.224833 -0.477981 6.760885 -17.525734 -40.348770 19.471264 -3.777810 -2.485298 -2.205620 -13.874131 41.628701 -24.164474 0.097000 2.008700 5.529600 24.875792 25.686999 3.563281 3.429173 -0.950450 4.933795 6.912281 -21.484391 -1.668384 -0.002200 -0.305100 0.838300 31.939298 -1.134046 12.012979 -11.357705 -1.852674 -11.972459 10.144692 -10.827420 43.551714 1.911500 -3.367800 12.220700 -88.247471 -26.922887 89.988126 146.497998 -40.294956 -108.012952 -1.236772 -0.399310 -18.878580 -7.125000 0.000000 0.000000 73.309470 36.807495 91.343098 -150.117651 34.573492 -109.712786 -1.920030 -1.385889 -4.642193 7.125000 0.000000 0.000000 
0.863461 18.402416 9.145628 -11.357324 -0.404384 6.893768 -17.656091 -40.282138 19.502996 -3.778936 -2.493700 -2.197824 -13.919189 41.688617 -24.023529 0.085900 1.889900 5.201400 24.766042 25.644116 3.465157 3.430754 -0.971018 4.902122 6.899149 -21.496274 -1.595395 -0.001200 -0.225300 0.619100 34.061457 -1.434437 11.053677 -11.241168 -2.124066 -11.745893 8.818007 -9.649714 42.914840 1.736400 -3.066000 12.027200 -88.353947 -26.827451 89.216948 146.548706 -40.196314 -108.036446 -1.233371 -0.393658 -18.312553 -7.125000 0.000000 0.000000 73.227088 36.871774 92.734797 -150.241756 34.316709 -109.790580 -1.874643 -1.445704 -5.133080 7.125000 0.000000 0.000000 
0.862724 18.402311 9.148052 -11.333580 -0.398141 6.855936 -17.709795 -40.315865 19.567360 -3.780957 -2.498870 -2.197762 -13.906219 41.674416 -24.086860 0.088400 1.917300 5.277300 24.749139 25.627983 3.482829 3.430610 -0.968814 4.910141 6.889390 -21.458560 -1.616008 -0.002400 -0.319600 0.878100 33.981328 -1.414573 11.215788 -11.188304 -2.074691 -11.714251 8.658509 -9.651184 43.070083 1.664200 -3.067600 12.061400 -88.092139 -27.050864 89.607377 146.587843 -40.141502 -108.064854 -1.230855 -0.401720 -18.026131 -7.125000 0.000000 0.000000 72.360510 38.053527 92.973304 -150.374220 33.921714 -109.880555 -1.823611 -1.536894 -5.380709 7.125000 0.000000 0.000000 
0.860722 18.401995 9.149843 -11.339580 -0.384854 6.819801 -17.703672 -40.334428 19.595918 -3.783075 -2.495430 -2.180195 -13.868745 41.622930 -24.204637 0.093200 1.968400 5.418300 24.799956 25.649276 3.531143 3.430030 -0.973678 4.934651 6.895355 -21.467473 -1.680203 -0.004200 -0.419900 1.153700 33.865896 -1.387300 11.315045 -11.180837 -2.046170 -11.726303 8.540062 -9.660668 43.474744 1.625000 -3.069700 12.202900 -87.865964 -27.188388 89.869753 146.629316 -40.088901 -108.093169 -1.230834 -0.406448 -17.932047 -7.125000 0.000000 0.000000 72.026384 38.478354 92.983741 -150.543519 33.656181 -109.977026 -1.785543 -1.600975 -5.285117 7.125000 0.000000 0.000000 
0.859036 18.402100 9.150264 -11.338501 -0.358837 6.802799 -17.643194 -40.303171 19.532987 -3.779047 -2.484085 -2.164536 -13.898837 41.656963 -24.095242 0.084800 1.878400 5.169600 24.850245 25.708886 3.582266 3.431328 -0.972143 4.938386 6.916473 -21.519316 -1.754586 -0.007200 -0.549300 1.509400 33.679631 -1.356564 11.394745 -11.172432 -2.025713 -11.776483 8.455723 -9.730870 44.115610 1.600400 -3.095400 12.454700 -87.718468 -27.294649 90.103303 146.665054 -40.055046 -108.111105 -1.232682 -0.391760 -17.902568 -7.125000 0.000000 0.000000 72.317150 38.170148 92.385552 -150.718434 33.593683 -110.038077 -1.799700 -1.601783 -4.190797 7.125000 0.000000 0.000000 
0.857771 18.402311 9.149843 -11.343721 -0.283652 6.825667 -17.575970 -40.363601 19.488278 -3.774120 -2.475390 -2.169427 -13.916878 41.671688 -23.990341 0.081000 1.835600 5.051700 24.893537 25.731207 3.587351 3.433573 -0.969628 4.933760 6.938615 -21.577657 -1.830860 -0.008400 -0.593300 1.630500 33.473396 -1.309774 11.364492 -11.175367 -2.018133 -11.829502 8.677140 -9.950576 44.798785 1.663900 -3.151600 12.747300 -87.810986 -27.525553 88.877942 146.638570 -39.916579 -108.328916 -1.190237 -0.704382 -15.346026 -7.125000 0.000000 0.000000 73.253935 37.144254 90.648845 -150.988167 33.666710 -110.078450 -1.861638 -1.533803 -1.189079 7.125000 0.000000 0.000000 
0.856823 18.403154 9.148684 -11.317581 -0.183691 6.843632 -17.531972 -40.385228 19.414057 -3.768934 -2.467830 -2.168731 -13.903894 41.619974 -23.834051 0.077800 1.799000 4.950600 24.870679 25.693794 3.544825 3.434435 -0.974193 4.943814 6.956390 -21.620856 -1.881516 -0.007400 -0.554400 1.523400 33.318045 -1.247568 11.291256 -11.195524 -1.999500 -11.824553 8.613774 -9.973031 44.652434 1.616800 -3.168000 12.656900 -87.690619 -27.510720 90.118968 147.527009 -39.120162 -108.834700 -1.127899 -0.826702 -16.433368 -7.125000 0.000000 0.000000 73.581082 37.130760 90.137741 -150.916245 33.807081 -110.026856 -1.875673 -1.501888 -0.602863 7.125000 0.000000 0.000000 
0.856086 18.405472 9.147104 -11.243849 -0.077593 6.887722 -17.543035 -40.395592 19.315765 -3.763428 -2.451901 -2.153742 -13.915152 41.614708 -23.648880 0.072600 1.737700 4.781200 24.790672 25.682898 3.509024 3.437708 -0.972385 4.927315 6.993297 -21.715629 -1.931028 -0.006600 -0.526400 1.446500 33.152547 -1.129208 11.039041 -11.239377 -1.976649 -11.803719 8.746258 -10.049768 44.395175 1.625200 -3.186500 12.510200 -87.774737 -27.524590 90.227802 147.496594 -39.155777 -108.822866 -1.126042 -0.828252 -16.420489 -7.125000 0.000000 0.000000 73.858711 37.015132 89.847625 -150.901259 33.889334 -110.009667 -1.893996 -1.472221 -0.229204 7.125000 0.000000 0.000000 
0.855559 18.407263 9.146366 -11.222889 0.046350 6.934889 -17.555315 -40.500222 19.296667 -3.759393 -2.441761 -2.157813 -13.969084 41.706053 -23.558112 0.065300 1.649000 4.536500 24.775904 25.666387 3.502219 3.443823 -0.956169 4.873750 7.028300 -21.814422 -1.981390 -0.005600 -0.482300 1.325300 33.056104 -1.008844 10.755201 -11.312452 -1.964979 -11.783779 8.960423 -10.150879 44.133659 1.656600 -3.203800 12.379800 -87.913842 -27.476443 90.389262 147.519750 -39.143430 -108.843373 -1.119424 -0.837930 -16.426559 -7.125000 0.000000 0.000000 74.091285 36.916721 89.604770 -150.876608 33.969251 -109.991267 -1.908749 -1.444946 0.020736 7.125000 0.000000 0.000000 
